<svg id="Bold" enable-background="new 0 0 32 32" height="512" viewBox="0 0 32 32" width="512" xmlns="http://www.w3.org/2000/svg"><path d="m26 32h-20c-3.314 0-6-2.686-6-6v-20c0-3.314 2.686-6 6-6h20c3.314 0 6 2.686 6 6v20c0 3.314-2.686 6-6 6z" fill="#e3f8fa"/><path d="m19.935 9.167c-2.232 0-4.054 1.797-4.072 4.014l-2.536 3.618c-.707-.064-1.317.082-1.857.409l-3.47-1.398v3.818l2.053.822c.296 1.359 1.518 2.384 2.965 2.384 1.572 0 2.875-1.202 3.018-2.732l3.903-2.839c2.239 0 4.061-1.807 4.061-4.049l-.001-.001c0-2.232-1.821-4.046-4.064-4.046zm-8.889 11.68c.364.139.732.291 1.096.434.911.373 1.947-.071 2.311-.978.368-.907-.078-1.932-.989-2.294l-.929-.373c1.383-.307 2.714.729 2.715 2.17 0 1.233-3.118 3.071-4.204 1.041zm8.893-4.923c-1.507 0-2.732-1.21-2.732-2.711 0-1.494 1.221-2.711 2.732-2.711 1.496 0 2.722 1.217 2.722 2.711 0 1.505-1.226 2.715-2.722 2.711z" fill="#26c6da"/><path d="m19.947 11.037c-1.203 0-2.178.972-2.178 2.17s.971 2.17 2.178 2.17c1.196 0 2.178-.968 2.178-2.17s-.982-2.17-2.178-2.17z" fill="#8ce1eb"/></svg>