<?xml version="1.0" encoding="iso-8859-1"?>
<!-- Generator: Adobe Illustrator 19.0.0, SVG Export Plug-In . SVG Version: 6.00 Build 0)  -->
<svg version="1.1" id="Capa_1" xmlns="http://www.w3.org/2000/svg" xmlns:xlink="http://www.w3.org/1999/xlink" x="0px" y="0px"
	 viewBox="0 0 512 512" style="enable-background:new 0 0 512 512;" xml:space="preserve">
<path style="fill:#EA473B;" d="M512,339.911c0,6.828-5.535,12.363-12.363,12.363H12.363C5.536,352.274,0,346.739,0,339.911V172.089
	c0-6.828,5.536-12.363,12.363-12.363h487.274c6.828,0,12.363,5.535,12.363,12.363V339.911z"/>
<path style="fill:#D82B27;" d="M20.605,339.911V172.089c0-6.828,5.536-12.363,12.363-12.363H12.363
	C5.536,159.726,0,165.261,0,172.089v167.822c0,6.828,5.536,12.363,12.363,12.363h20.605
	C26.14,352.274,20.605,346.739,20.605,339.911z"/>
<g>
	<path style="fill:#F4F4F4;" d="M248.653,217.089h-0.826c-1.417,0-2.568,1.144-2.576,2.562c-0.032,5.853-0.132,23.664-5.633,35.509
		c-5.514,11.862-18.785,18.543-24.348,19.92c-1.149,0.285-1.957,1.316-1.957,2.5v14.118c0,1.622,1.49,2.854,3.098,2.522
		c17.034-3.528,27.386-20.754,31.393-35.697c1.57-5.848,3.438-17.338,3.424-38.86C251.228,218.241,250.075,217.089,248.653,217.089z
		"/>
	<path style="fill:#F4F4F4;" d="M261.911,219.657c-0.004-1.42-1.156-2.568-2.576-2.568c-1.559,0-2.726-0.241-3.721,0.756
		c-0.483,0.484-0.755,1.139-0.754,1.823c0.04,36.198,0.082,56.382-6.56,71.41c-0.352,0.796-0.279,1.717,0.197,2.447
		c1.015,1.56,1.002,1.17,18.328,1.17c1.884,0,3.138-1.967,2.327-3.679C262.079,276.098,262.022,256.28,261.911,219.657z"/>
	<path style="fill:#F4F4F4;" d="M301.384,275.079c-5.549-1.378-18.789-8.06-24.295-19.92c-4.946-10.635-5.584-25.358-5.633-35.506
		c-0.007-1.418-1.158-2.563-2.576-2.563h-0.825c-1.422,0-2.575,1.152-2.576,2.574c-0.015,21.519,1.853,33.01,3.423,38.859
		c4.005,14.943,14.341,32.168,31.337,35.697c0.756,0.157,1.546-0.033,2.15-0.524c1.267-1.031,0.95-0.941,0.95-16.116
		C303.339,276.395,302.533,275.364,301.384,275.079z"/>
	<path style="fill:#F4F4F4;" d="M222.262,228.071v-5.616c0-2.736-2.144-4.879-4.882-4.879h-54.069c-2.722,0-4.936,2.189-4.936,4.879
		v5.616c0,1.423,1.153,2.576,2.576,2.576h21.613v61.744c0,1.423,1.153,2.576,2.576,2.576h10.413c1.423,0,2.576-1.153,2.576-2.576
		v-61.744h21.558C221.109,230.647,222.262,229.494,222.262,228.071z"/>
	<path style="fill:#F4F4F4;" d="M359.301,267.583c-0.967-1.241-1.099-2.614-0.198-4.013c0.477-0.634,1.435-1.087,2.154-1.421
		c23.689-11.1,17.416-44.579-12.74-44.579c0,0,0.439,0.007-19.524,0.008c-6.31,0-11.444,5.133-11.444,11.442v63.316
		c0,1.423,1.153,2.576,2.576,2.576h10.413c1.423,0,2.576-1.153,2.576-2.576v-58.597c0-1.944,1.557-3.526,3.471-3.526h10.469
		c0.813,0,3.6,0.073,4.433,0.168c10.281,0.882,13.729,14.766,4.227,20.048c-3.678,2.197-8.15,2.447-11.606,5.782
		c-3.868,4.036-4.441,10.638-0.461,15.395l18.96,22.396c1.03,1.215,1.171,0.912,13.842,0.912c2.173,0,3.373-2.539,1.984-4.218
		L359.301,267.583z"/>
	<path style="fill:#F4F4F4;" d="M407.491,217.577h-10.356c-1.423,0-2.576,1.153-2.576,2.576v72.238c0,1.423,1.153,2.576,2.576,2.576
		h10.356c1.423,0,2.576-1.153,2.576-2.576v-72.238C410.067,218.73,408.914,217.577,407.491,217.577z"/>
	<path style="fill:#F4F4F4;" d="M138.874,224.463c-3.893-10.273-18.152-9.466-21.444-0.001
		c-28.316,72.046-27.154,67.771-26.06,69.378c0.481,0.704,1.278,1.125,2.129,1.125c11.584,0,12.692,0.48,13.484-1.698l5.73-15.818
		h30.913c6.387,16.638,6.133,17.517,8.495,17.517c12.118,0,12.556,0.375,13.574-1.135
		C166.79,292.207,168.029,296.575,138.874,224.463z M117.486,264.377l10.466-28.74l10.684,28.74H117.486z"/>
</g>
<g>
</g>
<g>
</g>
<g>
</g>
<g>
</g>
<g>
</g>
<g>
</g>
<g>
</g>
<g>
</g>
<g>
</g>
<g>
</g>
<g>
</g>
<g>
</g>
<g>
</g>
<g>
</g>
<g>
</g>
</svg>
